<svg width="300" height="300" xmlns="http://www.w3.org/2000/svg">

 <g>
  <title>background</title>
  <rect fill="none" id="canvas_background" height="602" width="802" y="-1" x="-1"/>
 </g>
 <g>
  <title>Layer 1</title>
  <g id="surface1">
   <path id="svg_1" fill="none" stroke-width="4" stroke="rgb(13.333333%,19.215686%,19.215686%)" stroke-miterlimit="10" d="m268.82813,251.82812c-2.8125,-3.57031 -7.59375,-5.67188 -11.66797,-7.36718c-9.39062,-3.89844 -19.14062,-6.94531 -29.10938,-8.95313c-3.98828,-0.80469 -8.00781,-1.25391 -12.01172,-1.92969c-0.51172,-0.08203 -6.3164,-1.17578 -4.78515,-2.12891c4.86718,-3.03516 9.89843,-6.59766 13.64843,-10.98828c8.03125,-9.39453 3.98438,-27.11719 2.80469,-38.42188c-1.45313,-13.97266 -3.73438,-27.84766 -5.15235,-41.82812c-1.07813,-10.64844 -3.74219,-22.44532 -9.75,-31.45312c-6.54687,-9.82422 -20.10547,-14.07813 -31.48437,-13.32032c-8.49219,0.5625 -16.48438,-0.32813 -17.00391,-10.69531c-0.20703,-4.16406 2.98438,-6.04297 5.07031,-6.82421c0.84766,-0.31641 1.75,0.3164 1.75,1.21484l0,11.33984c1.55078,2.01563 3.86719,-0.15625 3.86719,-0.15625c0.03125,-0.81251 0.0625,-1.6211 0.08984,-2.42579c0.12109,-3.19141 0.24219,-6.39453 0.35938,-9.58984c0.04688,-1.20703 0.05469,-2.42187 0.13672,-3.62891c0.04688,-0.6914 0.20313,-0.84766 0.60157,-1.45703c0.63671,-0.97656 0.72656,-2.21093 0.84765,-3.32813c0.19922,-1.83203 0.54688,-3.64062 0.92188,-5.4375c0.32813,-1.58984 0.21484,-3.17578 0.53125,-4.75c0.39844,-2.01563 2.01172,-3.15625 2.98438,-4.82031c3.02344,-5.16016 -1.97266,-6.46485 -1.97266,-6.46485c0.48828,-2.96484 0.66016,-5.98046 0.42188,-8.97266c-0.49609,-6.20312 -2.77734,-12.14063 -6.52734,-17.10547c-1.46875,-1.94922 -3.17188,-3.88672 -5.08203,-5.41406c-3,-2.41015 -6.75,-3.51953 -10.26172,-4.92969c-2.60937,-1.05078 -5.22656,-2.10156 -7.83593,-3.14843l-11.57422,4.59766c-0.33594,0.13281 -0.67579,0.28515 -0.9961,0.45703c-20.42968,11.03125 -16.64453,30.8086 -15.77344,34.35547c0.03906,0.16016 -0.06641,0.3086 -0.22656,0.32422c-0.54688,0.05078 -1.5,0.79297 -1.69532,0.94531c-1.75391,1.35547 -2.08203,4.0625 -0.65625,5.78906c0.55468,0.66797 1.3125,1.14844 1.875,1.8086c1.49218,1.76953 1.21875,4.27344 1.42187,6.42578c0.23438,2.46094 0.72266,4.90625 1.85938,7.125c0.46093,0.88672 0.99219,1.73438 1.62109,2.50391c0.09766,0.11328 0.71484,0.63281 0.71484,0.76562c0,0.00781 0.10938,14.76172 0.10938,14.76172c1.16406,3.71875 4.41796,0.57813 4.41796,0.57813c0,0 -0.11328,-7.55469 0.11328,-10.10938c0.23438,-2.55859 2.55859,-1.74219 2.55859,-1.74219c3.21094,1.125 3.81641,5.94141 3.65234,8.80469c-0.22656,3.9375 -1.875,6.17969 -5.76953,7.2461c-14.39844,3.9375 -31.88281,1.57421 -42.76172,13.77734c-9.11328,10.21484 -8.85156,24.21874 -10.95313,36.97656c-2.03125,12.35938 -3.5625,24.80078 -5.02343,37.23437c-1.05078,8.89063 -2.71484,18.58594 -1.54688,27.4961c1.97266,14.99219 19.13281,22.65625 19.13281,22.65625l0,1.70312c0,0 -63.67187,4.1875 -64.44531,30.21094c-0.77344,26.02344 27.26954,26.64844 27.26954,26.64844c2.95313,0.44141 5.93359,0.66797 8.91015,0.80859c6.96875,0.34375 13.94141,0.24219 20.89453,-0.27734c8.10547,-0.60156 16.28906,-0.86328 24.36719,-2.01172c15.26954,-2.17187 30.35156,-6.46484 45.89453,-6.23047c10.42187,0.15625 20.69141,2.3711 30.98047,4.07422c18.25391,3.01953 37.65625,5.39844 56.13672,3.875c9.19531,-0.75781 21.78906,-2.03125 28.36719,-9.35938c6.70313,-7.48438 5.78125,-21.5625 -0.26563,-29.23438zm-153.45703,-57.53125c-0.46485,17.35156 -3.67969,21.56641 -3.67969,21.56641l-13.83203,-11.65234l8.36328,-40.58984c0.01562,0 9.61328,13.32812 9.14844,30.67578zm74.36328,21.57422c0,0 -3.21875,-4.22266 -3.68359,-21.57032c-0.46484,-17.35156 9.14453,-30.67187 9.14453,-30.67187l8.36328,40.58984l-13.82422,11.65234zm0,0"/>
  </g>
 </g>
</svg>